<svg id="Layer_1" data-name="Layer 1" xmlns="http://www.w3.org/2000/svg" viewBox="0 0 1080 1080"><defs><style>.cls-1{fill:#cc202f;}.cls-2{fill:#fff;}</style></defs><path class="cls-1" d="M799.25,472.38c-.18-2,.13-4.14-.45-6-2-6.47-4.57-12.77-6.4-19.27-4.31-15.3-11-29.3-22.53-40.43-13.84-13.4-29.51-24.25-47.48-31.56-6.8-2.77-13.53-5.7-20.25-8.68-2.11-.93-4-2.26-6.15-3.44.62-1.09,1-1.82,1.41-2.45,11.7-16,8.64-34.94-2.55-48.61a82,82,0,0,0-34.23-24.88c-7.89-3.07-16-5.63-24-8.18-33.59-10.63-64.43-26.22-90.7-50.09a4.66,4.66,0,0,1-1.54-2.11c-1.21-5.62-2.59-11.23-3.29-16.93-.51-4.15,2.13-7,6.44-8.38,4.58-1.43,6.11-1,8.92,3.45,1.06,1.66,1.33,3.8,2.23,5.6,1,2,1.89,4.2,3.49,5.53a13.2,13.2,0,0,0,14.32,2.1c7.52-3.2,10.13-9.88,10.72-17.2,1.23-15.38-5.14-27.6-17.32-36.6-6.25-4.63-13.16-8.37-19.85-12.4a7.22,7.22,0,0,0-3.52-.77q-12.24-.09-24.47,0a6.75,6.75,0,0,0-2.91.5c-5.49,2.66-10.91,5.48-16.4,8.13A26.22,26.22,0,0,0,490.43,171c-3.56,6.79-7.36,13.55-9.92,20.74-3.28,9.23-5.32,18.9-8.08,28.32-3.62,12.33-10.75,22.1-21.94,28.62-4.78,2.79-9.77,5.21-14.72,7.71-5.95,3-12.11,5.62-17.89,8.9-8.31,4.72-15.16,11-19.32,19.91-2,4.38-2.22,4.3-6.88,2.75A46.59,46.59,0,0,0,335,312.5c-5.6,12.15-5.45,24.5-.78,36.94.59,1.56,1.28,4.06.53,5-2.57,3.1-5.64,5.9-10.15,5.91a46.14,46.14,0,0,0-43.25,29c-6.85,16.73-6.64,33.73-1.61,50.85,2.75,9.37,2.57,9.73-6.64,13.74-2.23,1-4.73,2-6.3,3.73-3.78,4.19-7.11,8.79-10.57,13.27a3.3,3.3,0,0,0-.59,1.84c0,5.21,0,10.42,0,15.63a4.64,4.64,0,0,0,.67,2.19c8.12,13.83,19.59,23.45,35.06,28.26,13.1,4.07,26.59,5.3,40.14,6,17.42.9,34.73,2.25,51.68,6.83A233.69,233.69,0,0,0,408,537a67.94,67.94,0,0,0,38.83-4.9A34.48,34.48,0,0,1,472.29,531c19.39,6.29,39.16,10.92,59.64,12,16.9.86,33.84,1.11,50.15-4,10.64-3.32,20.89-7.93,31.19-12.24,6-2.51,11.92-3.3,18.15-1.27,6.76,2.21,13.52,4.42,20.3,6.55,9.24,2.89,18.63,5.16,28.34,3.08,8.45-1.81,16.83-4,21.42-12.59a21.85,21.85,0,0,1,2.54-3.28c4.7,3,8.5,5.91,12.73,7.92s9.15,3.17,13.72,4.81c3.24,1.15,6.41,2.48,10.09,3.92-4.4,3.47-8.24,6.43-12,9.48s-8.3,4.94-13.22,4c-4.72-.9-9.62-1.91-13.88-4-7.58-3.74-14.32-3.15-20.94,1.75-.37.27-.81.43-1.16.71-2.11,1.72-3.94,1.44-6.41.17a51,51,0,0,0-12.55-4.7c-6.76-1.41-12.81,1.58-18.08,5.31-5,3.54-9.28,3.12-13.9,0-.28-.19-.6-.33-.86-.54-8.08-6.61-15.94-5.95-24,.28-7,5.41-14.33,5.86-22,.94-6.14-3.94-13.1-4.87-20.24-3.86-2,.28-4.61.89-5.73,2.31-6.07,7.66-8.27,9.28-16.78,6.12-11.79-4.39-22.52-3.4-32.94,3.26-2.65,1.69-5,1.32-7.56-.26-5-3.07-10.18-5.89-15.21-8.93-5.58-3.39-11.11-3.33-16.69-.12-4.9,2.81-10,5.4-14.64,8.56-4,2.67-7.4,2.12-10.95-.33-2.89-2-5.71-4.08-8.57-6.12-7.19-5.13-14.5-5-21.86-.41a57.16,57.16,0,0,0-4.71,3.33c-6.22,4.84-6.13,4.74-12.86.21a81.46,81.46,0,0,0-12.24-7.12c-4.9-2.18-9.45-1-13.21,3.08a42.89,42.89,0,0,1-5.63,4.86c-1.41,1.09-2.7.93-4.09-.54-3.64-3.88-7.42-7.64-11.34-11.24a4.77,4.77,0,0,0-3.75-.93c-3.51.84-6.92,2.06-10.35,3.19-8.13,2.67-15.42,1.61-22.28-3.88a61,61,0,0,0-12.73-7.68c-5.52-2.51-8.92-.2-8.25,5.78a54.53,54.53,0,0,0,3.84,13.9c5.34,13.44,11.48,26.58,16.48,40.13,21.91,59.33,38.73,120.16,52.38,181.88,1.62,7.31,3.46,14.56,5.34,21.81a7,7,0,0,1,7.94-1.79c1.13.4,2.27.76,3.41,1.13a53.26,53.26,0,0,0,6.37-4.4q-9-32.52-18.31-64.94C356.05,690.43,346,654.53,334.91,619c-5-15.9-12.37-31-18.45-46.61-2.52-6.45-4.47-13.13-6.69-19.7l.93-.67c3.11,1.21,6.28,2.27,9.32,3.64a19.85,19.85,0,0,0,18-.27,11.55,11.55,0,0,1,12.23.64c3.3,2.16,6.32,4.74,9.48,7.12,6.36,4.77,10.45,4.53,16.1-1.1,1.82-1.82,3.44-3.85,5.31-5.95,3.83,2.58,7.52,5.18,11.33,7.62,4.74,3,9.74,5.22,15.64,4.17,4.24-.75,7.37-3.19,10.29-6.14,5.64-5.7,6.25-5.78,13.31-1.77,2.85,1.62,5.67,3.31,8.42,5.1a22.55,22.55,0,0,0,27.61-2.29c1.47-1.39,3.28-2.41,4.82-3.74,4.16-3.59,8.5-3,12.85-.58,2.06,1.16,3.79,2.91,5.88,4,4.88,2.51,9.72,5.37,14.92,6.88,2.74.79,6.34-.61,9.32-1.66,3.6-1.27,6.9-3.34,10.43-4.83a14.22,14.22,0,0,1,12.17.37,22.48,22.48,0,0,0,13.49,2.38,30.3,30.3,0,0,0,9.41-3.11c3.07-1.62,5.65-4.13,8.5-6.18a7.13,7.13,0,0,1,8.28-.4c2.05,1.2,4.09,2.41,6.1,3.67,10.14,6.32,19.39,5.79,28.71-1.68,6.29-5,6.24-4.94,13.2-1.16,3.74,2,7.5,4.43,11.56,5.36,5.32,1.22,10.46-.77,15.21-3.45a63.28,63.28,0,0,1,7.83-4,9.25,9.25,0,0,1,9,1.1,28.11,28.11,0,0,0,6.53,3.53c5.14,1.78,10,1.79,14.64-2a15.49,15.49,0,0,1,18.64-.92c6.29,4.54,12.82,5.83,20.16,3.47a11.63,11.63,0,0,1,2.2-.19C730,565,728.39,570,726.88,575c-16.09,53.41-32.47,106.74-48.1,160.28-5.18,17.75-8.4,36.06-12.51,54.12,0,.11,0,.22-.07.33-.3,1.81-.53,3.22-.8,4.35,1.23.12,2.45.23,3.68.4,7.47,1.06,7.51,9.26,3.26,13.64l1.34-.11c2.05-.16,2.82-1,3.32-3q4.61-18,9.47-36c13.09-48.17,26.09-96.37,39.42-144.47a451.68,451.68,0,0,1,27.27-73.29c2.75-5.8,5.91-11.14-1.52-16.4,5.53-1.64,10.26-3,15-4.47,10.65-3.31,18.52-9.71,22.59-20.35,1.46-3.8,2.69-7.77,4.73-11.24C798.78,490.5,800.09,481.7,799.25,472.38Zm-384.59-189q19.48-9.57,38.84-19.42c8.19-4.16,16.72-8.22,21.71-16.32A104.06,104.06,0,0,0,483.84,229c4.2-11.33,7.4-23,11.85-34.25,6.25-15.75,16.76-27.64,33.69-32.42,19.64-5.55,38.73,5.37,42.42,24.51,1,4.93.14,10.2.14,15.31l-1.21.13c-5-3.3-9.93-6.65-15-9.86a21,21,0,0,0-13.69-2.92C531.64,190.53,524.63,201.1,527,212c1.34,6.12,3.93,11.5,9.27,15.3a6.2,6.2,0,0,1,2.22,3.91c.44,4.24,2.72,7,6,9.36,30,21.05,61.76,38.49,97.26,48.44,10.81,3,21.37,6.66,30.92,12.75,13.41,8.56,21,27.19,17.13,42-2.24,8.56-8,13.45-16.89,13.31-9.72-.16-19.43-1-29.15-1.46-14.13-.62-28.27-1.51-42.41-1.61-19.18-.13-37.79-3.5-56.16-8.56-28.4-7.83-56.84-15.55-85.1-23.9a156.19,156.19,0,0,1-37.28-16.88c-6.44-4-10.53-9-10.68-16.89C412.13,285.44,412.6,284.38,414.66,283.36ZM440.93,524c-7.09,1-14.16,2.29-21.28,2.87-15,1.24-29.43-2.25-43.71-6.3a146.07,146.07,0,0,0-43.5-5.88c-13.59.32-27.16-.25-40.34-4.07-8.12-2.35-15.28-6.19-19.89-13.72-4.49-7.37-5.06-14.94-.9-22.53a50.83,50.83,0,0,1,6.62-9.39c3.76-4.21,8.13-4.9,13.2-2.41a24.13,24.13,0,0,1,6.22,4.07c14.15,13.85,31.86,20.49,50.45,25.72,25.51,7.19,50.93,14.74,76.3,22.42,5.14,1.55,9.89,4.36,14.8,6.65A11.2,11.2,0,0,1,441,523Zm250.81-13.74c-4.93,10.62-13,16.61-25.83,16.2-6.22.32-12.55-2.25-18.94-4.5-4.68-1.65-9.35-3.36-14-5.22a33.34,33.34,0,0,0-24.82-.15c-7.41,2.74-14.71,5.77-22.08,8.63-18.57,7.2-37.83,9.55-57.62,8.12-26.25-1.9-51.47-8.56-76.14-17.21C417.8,504,383,492.84,347.43,484.1a110.24,110.24,0,0,1-33.66-14c-19.07-12.26-26.09-30.08-24.37-52a97.92,97.92,0,0,1,1.8-11.38c3.91-19.45,16.83-30.27,34.84-36.07a54.22,54.22,0,0,1,8.93-1.93c6.1-.87,11.83.17,16.45,4.52,24.73,23.31,55.55,34.62,87.2,44.2,31.19,9.45,63.06,15.92,95.19,21.12,33.36,5.4,66.82,10.12,100.12,15.81,14.31,2.45,28.38,6.42,42.47,10.07,12,3.11,17.4,11.9,18.72,23.57A41,41,0,0,1,691.74,510.23Zm79,.06a38.84,38.84,0,0,1-28.14,13.79,69,69,0,0,1-16.46-1.28c-8.76-1.69-14.05-7.44-15.85-16.14-1.07-5.19-1.94-10.45-2.51-15.72-1.28-11.8-7.55-20.35-17-26.91A99.5,99.5,0,0,0,649.5,447.6c-26.44-4.28-53-8.08-79.5-11.7-49.41-6.75-98.57-14.56-146-30.64-16.87-5.71-33.18-12.64-48.1-22.47-10.76-7.09-20.49-15.29-26.69-27-9.35-17.65-7-40.06,13.9-52.86,8.22-5,16.88-9,26.89-7.14a25.23,25.23,0,0,1,7.49,2.91c14.14,7.85,28,16.22,42.33,23.67,18.06,9.4,37.79,14.31,57.31,19.5,23.57,6.26,47.25,12.12,71.07,17.34,10.53,2.31,21.48,3,32.3,3.74,22.57,1.46,45.27,1.56,67.76,3.78,26.76,2.65,52,10.57,73.92,27.05,21.7,16.35,36.37,37.28,41.08,64.47.73,4.22.88,8.54,1.18,11.63C784,485.64,780.5,499.06,770.71,510.29Z"/><path class="cls-1" d="M646.4,785c-2.84-5.06-2.92-10.58-1.63-15.83,3.4-13.91,7.56-27.65,11-41.56,6.31-25.53,12.34-51.14,18.44-76.73q8.88-37.23,17.61-74.49c.77-3.32,3.22-4,5.66-4.33.63-.1,2.4,2.51,2.4,3.88,0,4.84.14,9.84-1,14.49-3.41,14.27-7.65,28.33-11.07,42.6-10.54,43.91-20.86,87.88-31.27,131.83-1.11,4.72-2.46,9.4-3.37,14.16C652.48,782.7,650.88,785.06,646.4,785Z"/><path class="cls-1" d="M659.47,562.56c5.63,1.52,6.14,1.9,5.44,7.14-1.34,10.08-2.94,20.12-4.57,30.15q-5.91,36.14-12,72.23Q642.11,710,635.83,748c-2.13,12.82-4.26,25.63-6.5,38.43-.46,2.64-1.16,5.37-4.5,6.46-3.81-4.66-4.16-10.18-3.27-15.68,2-12.49,4.51-24.9,6.61-37.37,3.65-21.72,7.15-43.48,10.72-65.21q5.24-31.77,10.48-63.54c1.75-10.7,3.14-21.47,5.2-32.12C655.64,573.37,657.81,568,659.47,562.56Z"/><path class="cls-1" d="M619.53,562.33c5,2.87,5.87,7,5.62,11.22-.39,6.54-1.45,13-2,19.56-1.14,12.62-2.16,25.25-3.24,37.88q-2.26,26.37-4.54,52.75c-1.22,14.32-2.4,28.64-3.62,43q-2.24,26.2-4.49,52.42c-.31,3.61-.54,7.22-.82,10.83-.06.79.14,1.91-.29,2.31a18.72,18.72,0,0,1-4.51,3.09c-.24.11-1.77-1.69-2.12-2.79a27.52,27.52,0,0,1-1.38-6.59c-.88-13.53,1.27-26.85,2.85-40.22,1.31-11,2.26-22,3.25-33.08q2-22.32,3.78-44.65c1.52-18.61,2.8-37.23,4.49-55.82,1.32-14.4,3-28.76,4.75-43.12C617.47,566.94,618.62,564.91,619.53,562.33Z"/><path class="cls-1" d="M380.37,563.81c.86.09,1.29.15,1.72.17,4,.14,5.58,2.11,6.25,6.17,3.56,21.63,7.52,43.19,11.27,64.78q6.39,36.92,12.66,73.84c4,24,8,47.93,12,71.88.29,1.68,1.5,3.19,2.65,4.62.67,7.74.34,8.24-5.25,8.11-1.88-5-4.48-10-5.59-15.28q-5.58-26.69-10.24-53.57c-5.3-30.5-10.33-61-15.38-91.59q-5-30.09-9.66-60.24A85,85,0,0,1,380.37,563.81Z"/><path class="cls-1" d="M392.41,782.35a13.2,13.2,0,0,0,1.56,3.2,9.13,9.13,0,0,1,7.35,4.12c-.46-2.85-.79-5.43-1.38-7.91-7.65-32-15.17-63.94-23.08-95.83-10-40.44-20.37-80.8-30.57-121.19-1.07-4.23-1.94-4.93-8-5.61,1.79,9.75,3.05,19.39,5.36,28.76,8.61,34.85,17.61,69.61,26.38,104.43,6.2,24.64,12.26,49.31,18.36,74C389.75,771.64,390.69,777.12,392.41,782.35Z"/><path class="cls-1" d="M481.15,663.93c1.16,15,2.08,30,3,45,1.36,22.81,2.48,45.63,4,68.43.29,4.28,1.82,8.53,3.12,12.68.63,2,1.8,3.22,3.51,3.11l1-.2a7.39,7.39,0,0,0,2-1c-.35-6.3-.64-12.84-1.1-19.37-1.24-17.83-2.6-35.65-3.83-53.48-1.11-16-2.1-32.06-3.16-48.09C488.42,653,487.13,635,486,616.89c-.84-13.77-1.32-27.57-2.22-41.34-.31-4.83-1.28-9.65-6.12-13a9.12,9.12,0,0,0-.84,1.52,8.92,8.92,0,0,0-.4,2c-1.4,19.7-.61,39.36,1.13,59C478.72,638,480.14,651,481.15,663.93Z"/><path class="cls-1" d="M422.6,562.74c4.52,2.14,7.56,5.39,8.69,9.74,1.8,6.86,3.16,13.87,4.3,20.88,3.24,20,6.09,40,9.44,59.95,5.76,34.32,11.92,68.58,17.61,102.91,1.53,9.24,2,18.66,2.87,28,.15,1.63-.24,3.31-.49,6.11a50.13,50.13,0,0,1-3.43-3.75c-5-7.08-6.25-15.4-7.53-23.68-4.68-30.38-9.21-60.78-14-91.13-4.23-26.56-8.82-53.07-13.19-79.61-1.51-9.14-2.83-18.31-4.22-27.48A15.1,15.1,0,0,1,422.6,562.74Z"/><path class="cls-1" d="M531.1,568.4c2.66.52,3.81,1.89,3.92,4.26.34,7.34.81,14.69,1.06,22,.36,10.74.58,21.5.88,32.25q1.39,50.58,2.82,101.16c.51,17.54,1.18,35.07,1.64,52.6.05,1.86,1.05,4.45-2.14,5.26-4.31,1.09-4.66,1.14-5.19-3.27-.64-5.38-.91-10.82-1.08-16.24-1-32.36-1.82-64.73-2.88-97.08-.65-19.68-2-39.35-2.3-59-.19-12.18.95-24.37,1.65-36.55C529.58,572,530.53,570.21,531.1,568.4Z"/><path class="cls-1" d="M576.9,562.07c5.3,6.34,5.19,13.22,4.73,20.18-1.07,16.49-2.2,33-3.22,49.46Q576,669.83,573.79,708c-1,16.72-1.92,33.44-2.88,50.17-.64,11.15-1.28,22.31-1.94,33.74-3.34-1.18-5.33-2.69-5.18-6.35.53-13.22.79-26.46,1.34-39.68,1-23.07,2.08-46.14,3.12-69.2.92-20.59,1.78-41.17,2.74-61.75.59-12.66,1.19-25.32,2-38a82.57,82.57,0,0,1,2.1-11.6C575.35,564.29,576.15,563.41,576.9,562.07Z"/><path class="cls-1" d="M767.13,441.77c4.14,0,6.21,1.76,7.45,5.42,6.11,18.06,4.17,35.64-3,52.85a33,33,0,0,1-6.18,9.23c-6.49,7.13-16.24,9-25.18,5.41a37.14,37.14,0,0,0-4.92-1.19c-.32-.94-.81-2.41-1.45-4.34l6.09.79c0,3.87,2.36,3.06,4.59,2.29,14.94-5.12,23.27-15.65,25.5-31.19,1.76-12.28.22-24.34-2.33-36.33C767.54,443.84,767.37,443,767.13,441.77Z"/><path class="cls-1" d="M448.74,401.18c-7.62-2.26-14.83-3.81-21.56-6.53-11.29-4.57-22.33-9.79-33.36-15-2.26-1.06-4-3.19-6-4.76a11.79,11.79,0,0,0-2.83-1.69,60.4,60.4,0,0,1-29.79-24.66c-3.58-5.64-5.26-11.72-2.71-18.38,2.05-5.36,2-5.38,8.7-4.85-.29,2.62-.13,5.39-1,7.83-2.85,8.49-1,15.54,5.63,21.46s12.95,11.66,19.49,17.42a13,13,0,0,0,3.54,1.92c7.48,3.14,14.93,6.36,22.49,9.31,9.34,3.65,18.72,7.22,28.2,10.5C444.9,395.64,446.75,396.62,448.74,401.18Z"/><path class="cls-1" d="M720.82,499.05c-6.91-2.59-7.54-8.3-8.51-13.73-.61-3.44-.89-6.95-1.38-10.41a23.27,23.27,0,0,0-6.12-13,23.32,23.32,0,0,1-4.14-7.45c5.92,2.23,11,5.59,12.89,11.58,2.51,7.92,4.24,16.09,6.13,24.2C720.32,493,720.42,495.85,720.82,499.05Z"/><path class="cls-1" d="M699.5,453.58l-13.07-5.15c-2.73-1.07-5.41-2.27-8.2-3.12-3.8-1.15-6.75-3.05-7.65-7.1,8.46,3.9,18.54,4.27,26,11a30.65,30.65,0,0,0,4.27,2.72Z"/><path class="cls-1" d="M462.17,499.9c7.94,3.8,15.93,7.49,23.79,11.42a37.59,37.59,0,0,0,16.15,4.15c8.77.27,17.53,1.7,26.25,2.95,15.34,2.2,30.1,1.07,44.42-5.53a229.6,229.6,0,0,1,27.39-10.6c4.87-1.53,10.35-1.12,15.55-1.59l.34,1.43c-1.25.56-2.47,1.18-3.74,1.67-15.14,5.92-30.26,11.91-45.47,17.64a37.33,37.33,0,0,1-11.18,2.48c-17.09.82-34.33,1.36-50.81-4-8.57-2.77-17.19-5.17-25.85-7.56-4.45-1.22-8.57-3.93-12.57-6.41-2-1.24-3.39-3.47-5.06-5.24Z"/><path class="cls-1" d="M332.51,467.93c-4.43-2.76-9-5.3-13.24-8.34a57.15,57.15,0,0,1-16.15-17.23,34.33,34.33,0,0,1-4.78-23.42c1.69-11.17,5.28-21.5,12.61-30.26a17,17,0,0,1,11.83-6.59c-1.57,4.14-2.6,7.9-4.36,11.29-3.43,6.62-7.6,12.87-10.86,19.56-4.62,9.51-4.52,19.2,1.61,28.05,3.51,5.06,7.88,9.56,12.09,14.1,3.82,4.12,7.95,8,11.94,11.9Z"/><path class="cls-1" d="M562.57,337.09c6.91,1.06,13.83,2.1,20.73,3.21,20.93,3.36,42,5.65,63.19,4.31a68.68,68.68,0,0,0,17.21-3.36c8.93-3,11.58-8.88,9-17.85-.2-.73-.41-1.45-.63-2.23,5-.14,9.07,3.73,9.61,9,.71,7-2.55,13.14-9.44,15-8,2.21-16.28,4.22-24.53,4.67a261.69,261.69,0,0,1-72.16-5.9C570.79,342.93,565.94,341.67,562.57,337.09Z"/><path class="cls-1" d="M499.28,223.1c2.69,1.19,3.65,3.1,3.75,5.91.36,10.14-2.62,19.38-7.22,28.23s-11.87,13.25-21.42,14.83a122.09,122.09,0,0,0-15.51,3.5c-5.89,1.78-10.84,4.83-13.07,11.26-.48,1.38-3.18,2-4.86,2.94-.63-1.33-1.64-2.61-1.83-4-.75-5.51,2.25-9.4,6.8-11.39A137.81,137.81,0,0,1,464.77,268c6.2-1.71,12.57-2.67,17.82-6.9,4.91-4,8.49-8.66,10.14-14.84C494.79,238.57,497.06,230.92,499.28,223.1Z"/><path class="cls-1" d="M276.84,475.09a28,28,0,0,1,4.72,2.86,3.5,3.5,0,0,1,.89,3.13c-2.2,4.43-.61,8.26,1.9,11.69a72.22,72.22,0,0,0,7.39,7.88,33.55,33.55,0,0,0,3.56,2.62c-5.62.7-12.76-3.37-16.48-8.55C275.42,490,273.23,480.77,276.84,475.09Z"/><path class="cls-1" d="M254.74,860.84c0-41-2.46-76.47,1.38-111.29,1.28-11.66,16.61-26.91,29-31.45,70.74-26.05,143.07-25.07,215.6-6,37.27,9.8,74.55,19.58,112.06,28.42,72.93,17.18,144.53,9.05,219.7-18.58,0,42.08,2.51,78.62-1.47,114.46-1.25,11.32-18,25.74-30.8,30.27-83.33,29.55-168,29.76-251.53,1.17C453.54,835.3,358.25,823.73,254.74,860.84Z"/><path class="cls-1" d="M903.71,709.92l59.82,9.25,3.26,7.53L854.28,783.12c-1.72-32.36-3-57-4.51-84.69l-86.28,24.29q-3.4-7.17-6.8-14.36c26-10.35,52.11-20.34,77.89-31.15,29.07-12.18,57.83-25.1,94.6-41.13Z"/><path class="cls-1" d="M181,941.7c3.68-22.52,7.06-43.21,10.74-65.76l-51.31-8.88q-1.23-4.65-2.48-9.32l95.61-50.09c1.6,31.23,2.75,53.61,4,77.32L335,859.88q1.78,5.86,3.56,11.73Z"/><path class="cls-2" d="M360.54,786.48v4.28c-5.9,8-12.09,15.92-18.6,23.44a144.34,144.34,0,0,1-16.55,16.51,56.6,56.6,0,0,1-15.62,9.6c-4.34,1.66-8.07,2.29-11.18,1.8a9.37,9.37,0,0,1-7.06-5c-1.59-2.84-2.38-6.72-2.38-11.68a59.06,59.06,0,0,1,1.72-13.26,109.3,109.3,0,0,1,5-15.6,189.42,189.42,0,0,1,8-17.29c3.16-6.05,6.86-12.49,11.13-19.21A171.51,171.51,0,0,1,328,742a106.27,106.27,0,0,1,11.7-12.2,56.57,56.57,0,0,1,9.74-6.95,23.49,23.49,0,0,1,7.45-2.84,7.4,7.4,0,0,1,5.12.91,8.47,8.47,0,0,1,3.26,4.23,18.78,18.78,0,0,1,1.14,6.86c0,5-1.55,10.61-4.64,17.06a130.22,130.22,0,0,1-11.58,19.3A177,177,0,0,1,337,784.92c-4.21,4.57-7.23,7.2-9.08,7.72a3.86,3.86,0,0,1-3.47-.6,3.64,3.64,0,0,1-1.59-3.16c0-2.5,1.21-5.91,3.64-10.17a100.87,100.87,0,0,1,8-11.92c2.88-3.68,4.59-5.54,5.16-5.66.28-.07.42,0,.42.3a7.44,7.44,0,0,1-.63,2.18,9.09,9.09,0,0,0-.64,1.92c0,.35.12.5.37.44.68-.15,2.65-2.6,5.91-7.24A129.65,129.65,0,0,0,354,744c2.71-5.23,4.07-9.34,4.07-12.41a4.4,4.4,0,0,0-.75-2.82,2.3,2.3,0,0,0-2.27-.69c-2.81.43-7.08,3.63-12.81,9.79a161.55,161.55,0,0,0-17.61,23.51,191.66,191.66,0,0,0-15,29c-4,9.71-6,17.83-6,24a19.31,19.31,0,0,0,1.48,8.4,7,7,0,0,0,4.34,3.87,11.23,11.23,0,0,0,6.9-.54c5.83-2,12.48-6.5,19.84-13.24A254.16,254.16,0,0,0,360.54,786.48Z"/><path class="cls-2" d="M367.05,774.23q9.17-10,17.79-14.6c5.75-3.1,10.19-4.52,13.33-4.46a3.27,3.27,0,0,1,2.35,1.21,9.11,9.11,0,0,1,1.72,2.72,6.79,6.79,0,0,1,.63,2.25,1.88,1.88,0,0,1-.84,1.72,16.3,16.3,0,0,1-3,1.26l1.09,2.73c.44,1.11.78,2,1,2.69a5.44,5.44,0,0,1,.37,1.82c0,1-1,3-2.93,5.81s-3.31,4.94-4.1,6.29a9.89,9.89,0,0,0-1.17,5c0,3.24,1.36,4.86,4.1,4.9s7.21-2.71,13.2-8.09v4c-6,7.11-13.76,16.67-21.83,18a3.39,3.39,0,0,1-3.34-1.62,9.66,9.66,0,0,1-1-4.94c0-3.46,1.15-8.52,3.44-15.14-5.87,7.2-10.23,12.51-13.09,15.71s-5.2,4.9-7.05,5.08c-.89.08-2-.64-3.32-2.16a21.76,21.76,0,0,1-3.53-6.06,21.33,21.33,0,0,1-1.53-8.06,21.81,21.81,0,0,1,.54-5.24,14.61,14.61,0,0,1,2.11-4.5A62.85,62.85,0,0,1,367.05,774.23Zm28.89-8.44c-10.45,5.1-17.9,10-22.34,13.94s-6.67,8-6.67,11.82a7.38,7.38,0,0,0,.67,3.38,1.82,1.82,0,0,0,1.81,1.19,7.11,7.11,0,0,0,2.35-1.12,57.58,57.58,0,0,0,11.58-11.28C386.83,779.24,391,773.23,395.94,765.79Z"/><path class="cls-2" d="M455.57,790.83v4.4a114.35,114.35,0,0,1-11.33,11.21c-3.06,2.5-5.61,3.63-7.66,3.36a9.66,9.66,0,0,1-5.34-2.59,21.43,21.43,0,0,1-4.28-5.74q-1.89-3.57-4.49-9.8-3.08,3.84-5.55,7.24c-1.65,2.26-2.79,3.77-3.43,4.51s-1.23,1.1-1.75,1.07c-1.09-.07-1.87-.87-2.35-2.41a23.15,23.15,0,0,1-.73-6.65,48.25,48.25,0,0,1,1.3-11.34,50.69,50.69,0,0,1,3.74-10.45A87.12,87.12,0,0,1,420,762.92q3.82-5.68,8.59-11.73c4.38-5.56,8.16-10,11.34-13.4a50.7,50.7,0,0,1,8.29-7.44q3.53-2.36,5.88-2a3.09,3.09,0,0,1,2.89,3.34c0,1.62-3.56,6.8-10.67,15.75-10.12,12.72-20.71,25.08-31.12,37.57v5.66c7-7.43,14-15,22-21.43,5.55-4.43,9.88-6.33,12.94-5.83,1.24.21,2.21,1.17,2.89,2.89a15.42,15.42,0,0,1,1,5.73,14.59,14.59,0,0,1-5.07,11.1c-3.38,3.11-8.56,6.5-15.56,10.36a27.64,27.64,0,0,0,3.2,4.72,5.63,5.63,0,0,0,3.5,1.83,7.07,7.07,0,0,0,4-.79,26.71,26.71,0,0,0,4.43-2.8C450.11,795.34,452.44,793.44,455.57,790.83Zm-23.81-.2a41.44,41.44,0,0,0,5.69-4.37,37.78,37.78,0,0,0,5.82-6.34c1.61-2.24,2.41-4.18,2.41-5.85,0-.7-.28-1.1-.84-1.18-1.53-.24-4.15,1-7.87,3.67a53.81,53.81,0,0,0-10.88,11Q428.37,787.8,431.76,790.63Z"/><path class="cls-2" d="M464.86,794.9v1.65a10.93,10.93,0,0,0,1.75,6.39,7.15,7.15,0,0,0,4.58,3.08,13.28,13.28,0,0,0,6.12-.24,26.19,26.19,0,0,0,6.3-2.66c2.09-1.2,4.65-2.87,7.66-5v4A58.15,58.15,0,0,1,478.49,813a16.94,16.94,0,0,1-12.12,2.29,12.51,12.51,0,0,1-8.51-6.13q-3.14-5.1-3.13-13a23.56,23.56,0,0,1,2.95-12,34.79,34.79,0,0,1,9.65-10.06,27.53,27.53,0,0,1,9.11-4.59,16.89,16.89,0,0,1,8.08-.42,8.45,8.45,0,0,1,4.49,2.42,6.54,6.54,0,0,1,1.66,4.62,11.76,11.76,0,0,1-2.84,7.61,24.75,24.75,0,0,1-8.65,6.25A75.08,75.08,0,0,1,464.86,794.9Zm.6-4.16a27.11,27.11,0,0,0,9.29-3.86,20.87,20.87,0,0,0,5.7-5.33c1.22-1.82,1.84-3.21,1.84-4.17a1.59,1.59,0,0,0-1.27-1.79,6.86,6.86,0,0,0-3.53.75,21.8,21.8,0,0,0-4.94,2.92,20.8,20.8,0,0,0-4.49,4.82A16,16,0,0,0,465.46,790.74Z"/><path class="cls-2" d="M530.28,817.71a19.37,19.37,0,0,1,.61-4.09,9.48,9.48,0,0,1,1.63-3.83c1.72-2.24,3.31-4.29,4.76-6.17s2.73-3.47,3.86-4.81a32.41,32.41,0,0,1,3.37-3.5q10.32-9.59,14.78-14.53c3-3.28,4.46-5.72,4.46-7.3a3.66,3.66,0,0,0-1.33-2.79,7.87,7.87,0,0,0-3.49-1.74q-4.47-1.08-11.22.69t-15.77,5q-9,3.26-10,3c-1.08-.27-1.63-1.26-1.63-3a25.34,25.34,0,0,1,1.27-5.87c.74-2.56,1.17-4.85,1.57-6.35a9,9,0,0,1,2-3.8,13.74,13.74,0,0,1,4.7-3q3.28-1.41,10.1-3.57c.24,1,.36,1.55.61,2.58a62,62,0,0,1,10.7-1.13,34.51,34.51,0,0,1,8.59.79c4.66,1.14,8,2.79,9.92,5s2.92,6.18,2.92,12a19.08,19.08,0,0,1-1.26,7.59,41.75,41.75,0,0,1-4.95,7.65c-5.59,7.53-9.79,12.63-12.6,15.35-8.16,8.16-12.24,13.07-12.24,14.78,0,1,.58,1.59,1.75,1.89q1.44.36,4.1-1.21a45,45,0,0,0,6.39-4.86q3.74-3.28,10.37-9.51,7-6.6,11.91-11.84t8-9.06c2.09-2.54,3.2-3.92,3.32-4.11a29.51,29.51,0,0,1,6.72-5.72c2.31-1.39,3.79-2,4.43-1.9.48.1,1,.69,1.69,1.78a19.25,19.25,0,0,1,1.66,3.74,11.37,11.37,0,0,1,.69,3.16,14.48,14.48,0,0,1-1.45,2.91c-1,1.72-2,3.49-3.13,5.31s-2.94,4.57-5.43,8.26a213.78,213.78,0,0,0-12.54,20.6c-2.89,5.65-4.34,9.44-4.34,11.42a3.8,3.8,0,0,0,.69,2.1,2.59,2.59,0,0,0,1.42,1.21,7,7,0,0,0,3.5-.89,25.18,25.18,0,0,0,5.6-3.6,59,59,0,0,0,7.36-7.2,85.9,85.9,0,0,0,6.57-8.81q3.25-5,5.79-9.49t5.13-9.61l-1-3.53a7.7,7.7,0,0,1-.24-2.09q0-1,3.56-5.79c2.37-3.21,3.94-4.77,4.7-4.65s1.56.92,2.14,2.34a11,11,0,0,1,.88,4.19c0,1.49-.62,4.37-1.84,8.62a128.59,128.59,0,0,1-15.35,32.76,60.06,60.06,0,0,1-10.58,12.55,41.51,41.51,0,0,1-10.16,6.88c-3,1.3-5.25,1.78-6.69,1.45a10.36,10.36,0,0,1-5.19-3.56,21.55,21.55,0,0,1-3.16-4.53,13,13,0,0,1-1.24-3.94,30.42,30.42,0,0,1,2.53-17.1,160,160,0,0,1,8.44-16.73c-8.74,9.44-17.44,19-27.16,27.39-6.36,5.47-11.11,7.81-14.08,7.06-2-.49-3.64-2.2-5-5.11A22.77,22.77,0,0,1,530.28,817.71Z"/><path class="cls-2" d="M620.73,815.9a66.85,66.85,0,0,1,17.79-11.08c5.75-2.29,10.19-3.38,13.33-3.15A3.58,3.58,0,0,1,654.2,803a9.81,9.81,0,0,1,1.72,2.78,6.91,6.91,0,0,1,.63,2.28,1.81,1.81,0,0,1-.85,1.69,14.46,14.46,0,0,1-3,1.14l1.08,2.78c.45,1.13.79,2,1,2.73a5.77,5.77,0,0,1,.36,1.83q0,1.59-2.92,5.69c-1.95,2.72-3.32,4.72-4.1,6a9.22,9.22,0,0,0-1.18,4.89c0,3.25,1.37,5,4.1,5.21s7.22-2.33,13.21-7.86v4c-5.72,7-13.86,16.55-21.83,16.95a3.89,3.89,0,0,1-3.35-2,10.61,10.61,0,0,1-1-5.08q0-5.19,3.43-14.69c-5.87,6.49-10.23,11-13.08,13.57s-5.21,3.76-7.06,3.47q-1.32-.2-3.31-3a30,30,0,0,1-3.53-7.07,24.89,24.89,0,0,1-1.54-8.51,19.57,19.57,0,0,1,.55-5.07,10.45,10.45,0,0,1,2.11-3.89A46.06,46.06,0,0,1,620.73,815.9Zm28.88-3.75c-10.45,4.36-17.89,7.76-22.34,10.77s-6.66,6.4-6.66,10.26a8.52,8.52,0,0,0,.66,3.55,2.49,2.49,0,0,0,1.81,1.63,5.45,5.45,0,0,0,2.36-.57,38.51,38.51,0,0,0,11.57-9.1A180.11,180.11,0,0,0,649.61,812.15Z"/><path class="cls-2" d="M670.84,820.43a87.26,87.26,0,0,1,17.79-13.8c5.75-3.24,10.19-5.12,13.32-5.45a2.89,2.89,0,0,1,2.36.89,7.5,7.5,0,0,1,1.71,2.45,6,6,0,0,1,.64,2.16,2.23,2.23,0,0,1-.85,1.85,17.81,17.81,0,0,1-2.95,1.69l1.08,2.58c.45,1,.79,1.89,1,2.54a5.16,5.16,0,0,1,.36,1.77c0,1-1,3.14-2.92,6.22s-3.32,5.32-4.1,6.75a10.4,10.4,0,0,0-1.18,5.11c0,3.24,1.37,4.76,4.1,4.48s7.22-3.65,13.21-10.36v4c-6.23,8-13.12,19-21.83,21a3.22,3.22,0,0,1-3.35-1.48,9.62,9.62,0,0,1-1-4.91c0-3.46,1.14-8.53,3.43-15.26-5.87,7.48-10.23,12.62-13.08,15.66s-5.21,4.54-7.06,4.52c-.88,0-2-.87-3.31-2.56a25.08,25.08,0,0,1-3.53-6.58,23.1,23.1,0,0,1-1.54-8.32,20.6,20.6,0,0,1,.54-5.14,12.48,12.48,0,0,1,2.12-4.17A58.55,58.55,0,0,1,670.84,820.43Zm28.88-8.37c-10.45,6.23-17.9,10.76-22.34,14.44s-6.66,7.37-6.66,11.23a7.9,7.9,0,0,0,.66,3.46,2.05,2.05,0,0,0,1.81,1.37,6.09,6.09,0,0,0,2.35-.92,47,47,0,0,0,11.58-10.9A217.1,217.1,0,0,0,699.72,812.06Z"/><path class="cls-2" d="M742.72,822v4.87c-5,8.1-11.06,20.81-20.51,23.3-2.63.7-5.09-.75-6.72-3.87s-2.44-7.47-2.44-13a59.4,59.4,0,0,1,2.89-16.42,151.78,151.78,0,0,1,7.75-20.19,175.19,175.19,0,0,1,10.07-18.88,63.31,63.31,0,0,1,9.68-12.6,8.77,8.77,0,0,1,2.83-2.07c.85-.27,1.41,0,1.69.67a12.89,12.89,0,0,1,.42,4c0,6.09-2.16,14.68-6.81,24.59-5.3,11.3-11.71,21.4-19,31.87a34.25,34.25,0,0,0-.61,5.39,11,11,0,0,0,1.66,6.51,4.1,4.1,0,0,0,4.61,1.63,7.12,7.12,0,0,0,3.26-2,45.38,45.38,0,0,0,3.68-4.12C736.46,830.05,739,826.87,742.72,822Zm-18-7.26a81.74,81.74,0,0,0,6.06-9q2.93-5,5.51-10.54a100.31,100.31,0,0,0,4.07-9.87,22.06,22.06,0,0,0,1.48-6.29q0-1.51-1-1.23a5.09,5.09,0,0,0-1.39,1.12q-3.68,4.33-8.26,15A99.3,99.3,0,0,0,724.69,814.72Z"/><path class="cls-2" d="M751.82,822.11v1.65q0,3.88,1.75,5.43c1.17,1,2.69,1.19,4.58.47a20.45,20.45,0,0,0,6.12-4,56.56,56.56,0,0,0,6.3-6.78c2.09-2.62,4.65-6.06,7.66-10.39v4a132.61,132.61,0,0,1-12.78,19.67q-6,7.3-12.12,9.52c-3.58,1.28-6.41.68-8.5-1.69s-3.14-6.22-3.14-11.49a32.23,32.23,0,0,1,3-13.42A79.41,79.41,0,0,1,754.29,800a74.3,74.3,0,0,1,9.11-10,34.88,34.88,0,0,1,8.08-5.71c1.89-.88,3.39-1.13,4.49-.73s1.66,1.54,1.66,3.42a21.6,21.6,0,0,1-2.83,9.65,61,61,0,0,1-8.66,12.11A112,112,0,0,1,751.82,822.11Zm.6-4.48a52.16,52.16,0,0,0,9.29-9.25,49.48,49.48,0,0,0,5.7-9c1.22-2.62,1.84-4.42,1.84-5.39s-.42-1.32-1.27-.94a15.19,15.19,0,0,0-3.53,3,60.17,60.17,0,0,0-4.94,6,49.69,49.69,0,0,0-4.49,7.43A27.28,27.28,0,0,0,752.42,817.63Z"/></svg>